HIERARCHY
ROOT WRIST
{
	OFFSET 0.000000 0.000000 0.000000
	CHANNELS 6 Xposition Yposition Zposition Yrotation Xrotation Zrotation
	JOINT THUMB_CMC_FE
	{
		OFFSET -0.225143 0.117753 -0.062308
		CHANNELS 3 Yrotation Xrotation Zrotation
		JOINT THUMB_CMC_AA
		{
			OFFSET -0.212856 -0.150507 0.098851
			CHANNELS 3 Yrotation Xrotation Zrotation
			JOINT THUMB_MCP_FE
			{
				OFFSET 0.322503 -0.167445 -0.031436
				CHANNELS 3 Yrotation Xrotation Zrotation
				JOINT THUMB_IP_FE
				{
					OFFSET -0.295233 -0.236404 0.025845
					CHANNELS 3 Yrotation Xrotation Zrotation
					End Site
					{
						OFFSET 0.000000 0.000000 0.000000
					}
				}
			}
		}
	}
	JOINT INDEX_MCP
	{
		OFFSET -1.076913 0.264198 -0.014768
		CHANNELS 3 Yrotation Xrotation Zrotation
		JOINT INDEX_PIP_FE
		{
			OFFSET -0.425053 0.013289 0.013619
			CHANNELS 3 Yrotation Xrotation Zrotation
			JOINT INDEX_DIP_FE
			{
				OFFSET -0.271505 -0.024898 0.000550
				CHANNELS 3 Yrotation Xrotation Zrotation
				End Site
				{
					OFFSET 0.000000 0.000000 0.000000
				}
			}
		}
	}
	JOINT MIDDLE_MCP
	{
		OFFSET -1.072991 0.019362 0.038780
		CHANNELS 3 Yrotation Xrotation Zrotation
		JOINT MIDDLE_PIP_FE
		{
			OFFSET -0.480704 0.002618 0.028696
			CHANNELS 3 Yrotation Xrotation Zrotation
			JOINT MIDDLE_DIP_FE
			{
				OFFSET -0.307486 -0.031129 -0.000643
				CHANNELS 3 Yrotation Xrotation Zrotation
				End Site
				{
					OFFSET 0.000000 0.000000 0.000000
				}
			}
		}
	}
	JOINT RING_MCP
	{
		OFFSET -0.994992 -0.195930 -0.005938
		CHANNELS 3 Yrotation Xrotation Zrotation
		JOINT RING_PIP_FE
		{
			OFFSET -0.436995 0.003792 0.019994
			CHANNELS 3 Yrotation Xrotation Zrotation
			JOINT RING_DIP_FE
			{
				OFFSET -0.295558 -0.038341 -0.006642
				CHANNELS 3 Yrotation Xrotation Zrotation
				End Site
				{
					OFFSET 0.000000 0.000000 0.000000
				}
			}
		}
	}
	JOINT PINKY_MCP
	{
		OFFSET -0.873858 -0.393246 -0.086282
		CHANNELS 3 Yrotation Xrotation Zrotation
		JOINT PINKY_PIP_FE
		{
			OFFSET -0.343972 -0.016492 0.013445
			CHANNELS 3 Yrotation Xrotation Zrotation
			JOINT PINKY_DIP_FE
			{
				OFFSET -0.224713 -0.036309 -0.010265
				CHANNELS 3 Yrotation Xrotation Zrotation
				End Site
				{
					OFFSET 0.000000 0.000000 0.000000
				}
			}
		}
	}
}
MOTION
Frames: 16
Frame Time: 0.008333334
2.395119 3.093776 5.027572 -154.259400 -65.820920 -14.094570 -61.461150 4.834490 -61.406860 -119.352900 -30.976960 -0.848694 112.864000 -65.843230 56.162770 -4.562073 -8.459839 27.676530 149.599300 2.865551 176.520200 41.978430 -86.125700 -25.194430 2.052630 1.704991 27.884950 169.785500 -1.756775 165.057600 39.241040 -88.411440 -25.256930 6.002518 4.395452 5.213406 -168.389700 -2.583008 159.850600 31.479770 -85.617830 3.803140 -0.199310 0.562927 1.560551 -160.955400 -6.419312 156.583100 48.977650 -83.530610 -3.013123 -5.539825 0.809162 43.958000 
2.396343 3.091684 5.026002 -154.100300 -65.833530 -14.359130 -61.461180 4.834475 -61.403020 -119.352900 -30.976930 -0.825592 112.864000 -65.843260 56.205920 -4.562073 -8.459839 27.676560 149.492600 2.861940 176.572600 41.978170 -86.125670 -24.827360 2.052632 1.704988 27.481700 169.657300 -1.768890 165.262800 39.241070 -88.411320 -25.810120 6.002518 4.395442 5.252035 -168.274200 -2.552643 159.823500 31.479510 -85.617830 3.591538 -0.199310 0.562933 1.873079 -160.829500 -6.370148 156.657900 48.977530 -83.530640 -3.441803 -5.539795 0.809189 43.813470 
2.397155 3.090542 5.024768 -153.795000 -65.837130 -14.675990 -61.461180 4.834490 -61.425510 -119.353000 -30.976960 -0.788666 112.864000 -65.843230 56.207080 -4.562073 -8.459839 27.676530 149.157600 2.850527 176.750900 41.978260 -86.125550 -24.676670 2.052632 1.704982 26.655030 169.627800 -1.771698 165.510200 39.241380 -88.411440 -26.131130 6.002514 4.395439 5.314465 -168.354600 -2.573792 160.089200 31.479580 -85.617800 3.511156 -0.199310 0.562932 1.359593 -160.942200 -6.414154 156.899600 48.977690 -83.530610 -3.856018 -5.539795 0.809163 43.716210 
2.397929 3.090366 5.023827 -153.447200 -65.679260 -15.018550 -61.461180 4.834472 -61.444640 -119.352900 -30.976930 -0.693909 112.864000 -65.843230 56.201020 -4.562073 -8.459839 27.676530 148.378600 2.823655 176.704700 41.978300 -86.125610 -25.178250 2.052619 1.705005 26.082610 169.361100 -1.796875 165.674500 39.241120 -88.411440 -26.878230 6.002518 4.395445 5.412483 -168.331400 -2.567688 160.284400 31.479580 -85.617800 3.426027 -0.199310 0.562931 1.091706 -160.903100 -6.398895 156.985200 48.977620 -83.530640 -3.778320 -5.539795 0.809159 43.488930 
2.397609 3.093509 5.021302 -153.550900 -65.543580 -14.964450 -61.461180 4.834482 -61.482790 -119.352900 -30.976960 -0.691559 112.864000 -65.843260 56.171870 -4.562073 -8.459869 27.676530 147.750200 2.801578 176.526700 41.978180 -86.125610 -25.984190 2.052626 1.705000 26.011830 169.434500 -1.789978 165.701000 39.241020 -88.411440 -27.411380 6.002521 4.395446 5.200267 -167.959200 -2.469696 160.278100 31.479490 -85.617800 3.932012 -0.199310 0.562920 0.726415 -160.596700 -6.279083 157.000000 48.977540 -83.530610 -3.735962 -5.539795 0.809165 43.675880 
2.396041 3.099032 5.018391 -154.017700 -65.384060 -14.581790 -61.461180 4.834478 -61.486820 -119.352900 -30.976930 -0.645325 112.864000 -65.843260 56.170560 -4.562073 -8.459869 27.676510 147.244200 2.783561 176.270400 41.978340 -86.125520 -26.928890 2.052629 1.704987 25.913930 169.938600 -1.742279 165.597600 39.241380 -88.411190 -27.822050 6.002522 4.395441 4.935333 -167.456100 -2.337128 160.222800 31.479770 -85.617860 4.235857 -0.199310 0.562909 0.469100 -160.215100 -6.129578 157.022300 48.977570 -83.530640 -3.670807 -5.539825 0.809169 43.704020 
2.393541 3.105088 5.015990 -154.305900 -65.267940 -14.316500 -61.461150 4.834475 -61.529050 -119.353000 -30.976960 -0.620087 112.864000 -65.843230 56.169040 -4.562073 -8.459839 27.676510 146.689100 2.763550 175.973300 41.978450 -86.125550 -28.156710 2.052629 1.704998 25.860280 170.276000 -1.710236 165.550200 39.241290 -88.411190 -28.773280 6.002523 4.395450 4.275474 -166.766500 -2.155029 160.146000 31.479640 -85.617800 4.716665 -0.199310 0.562912 0.472212 -159.816600 -5.973022 157.191200 48.977590 -83.530670 -3.820923 -5.539795 0.809184 43.896830 
2.389076 3.112654 5.012882 -154.837000 -65.157230 -13.880460 -61.461180 4.834476 -61.553070 -119.352900 -30.976930 -0.559509 112.863900 -65.843260 56.171560 -4.562073 -8.459808 27.676530 146.573900 2.759377 175.557800 41.978570 -86.125670 -29.202390 2.052630 1.704992 25.826130 170.977600 -1.643524 165.450700 39.241250 -88.411560 -30.275940 6.002520 4.395463 2.885032 -165.999500 -1.952087 160.124400 31.479520 -85.617740 4.958560 -0.199310 0.562937 -0.223846 -158.998100 -5.650391 157.256100 48.977550 -83.530610 -3.955627 -5.539795 0.809162 44.744620 
2.383062 3.119731 5.012399 -154.946400 -65.278690 -13.729030 -61.461180 4.834470 -61.590670 -119.352900 -30.976930 -0.565155 112.864000 -65.843260 56.170670 -4.562073 -8.459839 27.676510 146.513500 2.757144 175.249600 41.978080 -86.125550 -30.052520 2.052634 1.704993 26.249300 172.196800 -1.526978 165.434600 39.241020 -88.411440 -31.238310 6.002515 4.395460 2.744325 -165.163400 -1.730438 160.194700 31.479560 -85.617740 5.200023 -0.199310 0.562915 -0.561951 -158.691300 -5.529114 157.548800 48.977530 -83.530640 -4.416168 -5.539795 0.809181 44.989240 
2.374715 3.125995 5.011259 -154.825400 -65.381470 -13.854550 -61.461180 4.834485 -61.582890 -119.352900 -30.976960 -0.538940 112.864000 -65.843230 56.169650 -4.562103 -8.459839 27.676490 146.742300 2.765475 174.731600 41.978190 -86.125610 -31.028590 2.052630 1.705008 26.461590 173.506000 -1.401001 165.424500 39.241090 -88.411440 -31.406040 6.002521 4.395457 1.791541 -164.425100 -1.534302 160.305200 31.479530 -85.617800 5.503808 -0.199310 0.562940 -0.950012 -158.475000 -5.443420 157.814300 48.977510 -83.530550 -5.099304 -5.539795 0.809164 45.144640 
2.364888 3.130688 5.012752 -154.039000 -65.456970 -14.559420 -61.461180 4.834472 -61.617890 -119.352900 -30.976930 -0.483734 112.864000 -65.843230 56.149010 -4.562103 -8.459839 27.676480 147.786400 2.802871 174.204800 41.978390 -86.125670 -32.880340 2.052636 1.705017 24.623310 174.464300 -1.308350 165.334200 39.240880 -88.411440 -31.419530 6.002508 4.395447 0.897937 -163.935700 -1.404144 160.366000 31.479510 -85.617680 6.007248 -0.199310 0.562940 -0.998718 -158.434000 -5.427185 158.137800 48.977580 -83.530610 -5.420044 -5.539795 0.809189 45.142890 
2.350466 3.138676 5.012740 -153.510700 -65.525050 -15.074980 -61.461180 4.834480 -61.653810 -119.352900 -30.976960 -0.508606 112.864000 -65.843230 56.166130 -4.562073 -8.459839 27.676450 149.084100 2.848024 174.171300 41.978450 -86.125550 -31.456480 2.052628 1.705011 25.894490 175.276400 -1.229523 165.222900 39.241230 -88.411560 -31.020390 6.002523 4.395445 0.076802 -163.543200 -1.299683 160.504400 31.479470 -85.617830 6.392421 -0.199310 0.562914 -1.098114 -158.328300 -5.385284 158.390000 48.977630 -83.530670 -5.964203 -5.539795 0.809179 44.883870 
2.337877 3.134940 5.017689 -150.468700 -64.105130 -17.911930 -61.461180 4.834473 -62.559450 -119.352900 -30.976960 -4.439209 112.864000 -65.843260 57.741870 -4.562073 -8.459839 17.625260 146.967000 2.773606 173.144900 41.978180 -86.125610 -34.694890 2.052630 1.705006 26.074620 173.280500 -1.422760 164.937600 39.241050 -88.411440 -32.547030 6.002514 4.395440 -2.617950 -164.684500 -1.603241 160.432500 31.479600 -85.617830 7.007441 -0.199310 0.562910 -2.701569 -158.553600 -5.474579 158.331600 48.977630 -83.530670 -4.631744 -5.539795 0.809174 44.110180 
2.318515 3.139877 5.021539 -148.743000 -63.938480 -19.449950 -61.461180 4.834465 -62.521450 -119.352900 -30.976930 -4.527283 112.864000 -65.843260 57.704980 -4.562073 -8.459839 17.625250 148.033100 2.811557 173.342600 41.978290 -86.125550 -34.837190 2.052629 1.705012 26.458700 173.301100 -1.420776 164.833100 39.241150 -88.411440 -32.676540 6.002522 4.395446 -1.413574 -165.331500 -1.775024 160.626500 31.479480 -85.617800 6.746026 -0.199310 0.562929 -2.527618 -159.211700 -5.734772 158.578400 48.977510 -83.530580 -4.941864 -5.539795 0.809182 43.553180 
2.296074 3.145268 5.025381 -147.326800 -63.267330 -20.800450 -61.461180 4.834475 -62.501830 -119.352900 -30.976960 -4.587952 112.864000 -65.843230 57.759060 -4.562103 -8.459839 17.625290 149.260300 2.854041 173.155000 41.978260 -86.125550 -34.262330 2.052626 1.705004 27.510550 173.249900 -1.425720 164.510400 39.241190 -88.411440 -32.253780 6.002508 4.395447 -1.185059 -165.468600 -1.811371 160.508600 31.479620 -85.617830 7.043753 -0.199310 0.562918 -2.353333 -159.396900 -5.807800 158.528600 48.977610 -83.530610 -4.863831 -5.539795 0.809176 42.979420 
2.270293 3.150099 5.031152 -145.556900 -62.661500 -22.345760 -61.461180 4.834473 -62.475340 -119.352900 -30.976930 -4.654999 112.864000 -65.843230 57.741690 -4.562073 -8.459839 17.625260 150.346200 2.890537 173.166700 41.978380 -86.125550 -34.455110 2.052627 1.705001 27.784230 173.213900 -1.429199 164.428100 39.241370 -88.411320 -31.381440 6.002502 4.395425 -0.763550 -166.236800 -2.014923 160.559300 31.479590 -85.617830 6.693563 -0.199310 0.562910 -2.327423 -160.244300 -6.141052 158.828200 48.977610 -83.530610 -5.327026 -5.539795 0.809172 41.804120 
